<svg width="23" height="21" viewBox="0 0 23 21" fill="none" xmlns="http://www.w3.org/2000/svg">
<mask id="mask0_6568_7672" style="mask-type:alpha" maskUnits="userSpaceOnUse" x="0" y="0" width="23" height="21">
<path fill-rule="evenodd" clip-rule="evenodd" d="M2.99151 2.11744L0 0.48522C0 0.48522 8.2369 0.489792 12.1573 0.494364C13.455 0.494364 14.698 1.01558 15.6132 1.93456C15.7954 1.71967 15.8955 1.60537 16.2234 1.30819C16.8927 0.704678 17.7897 0.0325871 19.3788 0.000582793C19.825 -0.0085613 20.4261 0.0874517 20.7493 0.46236C21.4232 0.457788 22.1335 0.526368 22.7027 0.594949L21.0225 1.98942C20.6628 4.18858 19.5974 5.0024 19.1147 5.43218C20.0663 6.37402 20.5945 7.66334 20.59 9.00295C20.5854 12.9303 20.5763 21 20.5763 21C20.5763 21 17.9536 16.1353 16.7789 14.0596C16.2143 13.0629 15.7771 11.5679 15.3082 9.77105C15.1533 9.94936 6.0832 20.1953 6.0832 20.1953L10.3041 10.786L0.928871 15.038C0.928871 15.038 10.9461 6.10427 11.3149 5.77051C10.2495 5.43675 8.43269 5.08927 7.05305 4.32117C5.59144 3.51649 2.99151 2.11744 2.99151 2.11744Z" fill="#BC4038"/>
</mask>
<g mask="url(#mask0_6568_7672)">
<path fill-rule="evenodd" clip-rule="evenodd" d="M2.99151 2.11744L0 0.48522C0 0.48522 8.2369 0.489792 12.1573 0.494364C13.455 0.494364 14.698 1.01558 15.6132 1.93456C15.7954 1.71967 15.8955 1.60537 16.2234 1.30819C16.8927 0.704678 17.7897 0.0325871 19.3788 0.000582793C19.825 -0.0085613 20.4261 0.0874517 20.7493 0.46236C21.4232 0.457788 22.1335 0.526368 22.7027 0.594949L21.0225 1.98942C20.6628 4.18858 19.5974 5.0024 19.1147 5.43218C20.0663 6.37402 20.5945 7.66334 20.59 9.00295C20.5854 12.9303 20.5763 21 20.5763 21C20.5763 21 17.9536 16.1353 16.7789 14.0596C16.2143 13.0629 15.7771 11.5679 15.3082 9.77105C15.1533 9.94936 6.08319 20.1953 6.08319 20.1953L10.3041 10.786L0.928871 15.038C0.928871 15.038 10.9461 6.10427 11.3149 5.77051C10.2495 5.43675 8.43269 5.08927 7.05305 4.32117C5.59144 3.51649 2.99151 2.11744 2.99151 2.11744Z" fill="#BC4038"/>
<path fill-rule="evenodd" clip-rule="evenodd" d="M10.2976 10.7812L0.699296 16.2769L0.416992 14.8869L3.6134 11.7185C4.26908 11.8557 4.95207 11.9288 5.64872 11.9288C7.32889 11.9243 8.91343 11.5173 10.2976 10.7812Z" fill="#466A9E"/>
<path fill-rule="evenodd" clip-rule="evenodd" d="M10.2959 10.7819C10.8332 10.4984 11.3432 10.1646 11.8167 9.78516C11.9442 10.4207 12.008 11.079 12.008 11.7511C12.008 17.3062 7.51388 21.8188 1.98163 21.8188C1.67656 21.8188 1.37604 21.8051 1.08008 21.7776L10.2959 10.7819Z" fill="#5C4998"/>
<path fill-rule="evenodd" clip-rule="evenodd" d="M0.173828 1.85143C0.761202 1.74627 1.36224 1.69141 1.98148 1.69141C3.56603 1.69141 5.06861 2.06174 6.39817 2.72012C5.8108 2.82985 5.20521 2.88471 4.58597 2.88471C3.00142 2.88471 1.50339 2.51438 0.173828 1.85143Z" fill="#F09A38"/>
<path fill-rule="evenodd" clip-rule="evenodd" d="M6.39844 2.72491C9.8726 2.08482 12.7184 -0.370368 13.9296 -3.62109C14.9905 -2.03002 15.6097 -0.118905 15.6097 1.93394C15.6097 5.11609 14.1254 7.9599 11.8169 9.7933C11.2022 6.6843 9.15773 4.08738 6.39844 2.72491Z" fill="#A93930"/>
<path fill-rule="evenodd" clip-rule="evenodd" d="M25.63 11.3438C29.0177 11.3438 31.7679 14.1053 31.7679 17.5069C31.7679 20.9085 29.0177 23.67 25.63 23.67C22.2424 23.67 19.4922 20.9085 19.4922 17.5069C19.4922 14.1098 22.2424 11.3438 25.63 11.3438Z" fill="#F09A38"/>
<path fill-rule="evenodd" clip-rule="evenodd" d="M17.047 8.19531C17.516 10.5316 18.7909 12.5753 20.5758 14.0155C19.8928 15.0077 19.4921 16.2147 19.4921 17.5131C19.4921 20.9148 22.2423 23.6763 25.63 23.6763C25.7939 23.6763 25.9533 23.6717 26.1126 23.658C24.906 24.2661 23.5446 24.609 22.1057 24.609C17.1609 24.609 13.1494 20.581 13.1494 15.6157C13.154 12.5388 14.6975 9.81839 17.047 8.19531Z" fill="#FBC338"/>
<path fill-rule="evenodd" clip-rule="evenodd" d="M16.925 5.03125C16.8795 5.41987 16.8567 5.81307 16.8567 6.21541C16.8567 6.89207 16.925 7.55502 17.0525 8.19511C15.3359 9.37927 14.0473 11.1487 13.4782 13.2198C13.4645 13.0186 13.46 12.822 13.46 12.6163C13.4554 9.58501 14.8032 6.86921 16.925 5.03125Z" fill="#ED7837"/>
<path fill-rule="evenodd" clip-rule="evenodd" d="M17.0479 8.19388C18.4867 7.20174 20.2306 6.62109 22.1066 6.62109C26.9376 6.62109 30.8853 10.4708 31.0583 15.2851C29.7743 15.8932 28.3355 16.2315 26.8238 16.2315C21.9973 16.227 17.9676 12.7751 17.0479 8.19388Z" fill="#F2B641"/>
<path fill-rule="evenodd" clip-rule="evenodd" d="M16.9252 5.02932C18.6737 3.51597 20.9458 2.60156 23.4319 2.60156C28.9368 2.60156 33.4036 7.08674 33.4036 12.6143C33.4036 13.0167 33.3808 13.4099 33.3353 13.7985C32.6523 14.3883 31.8873 14.8912 31.0632 15.2799C30.8902 10.4701 26.9425 6.61582 22.1114 6.61582C20.2355 6.61582 18.4916 7.19647 17.0527 8.18861C16.9252 7.54852 16.8569 6.88557 16.8569 6.20891C16.8524 5.81114 16.8797 5.41794 16.9252 5.02932Z" fill="#E07037"/>
<path fill-rule="evenodd" clip-rule="evenodd" d="M16.9248 5.03175C17.5076 0.0619342 21.724 -3.79688 26.8282 -3.79688C32.3331 -3.79688 36.7999 0.688305 36.7999 6.21591C36.7999 9.24718 35.4567 11.9675 33.3349 13.8009C33.3804 13.4123 33.4032 13.0191 33.4032 12.6168C33.4032 7.08917 28.9364 2.60399 23.4315 2.60399C20.9454 2.60399 18.6687 3.5184 16.9248 5.03175Z" fill="#96291F"/>
<path fill-rule="evenodd" clip-rule="evenodd" d="M0.172519 1.85233C-3.11951 0.220112 -5.3916 -3.19064 -5.3916 -7.13174C-5.3916 -12.6594 -0.924824 -17.1445 4.5801 -17.1445C10.085 -17.1445 14.5518 -12.6594 14.5518 -7.13174C14.5518 -2.22594 11.0321 1.86148 6.39231 2.71645C5.0582 2.05807 3.56017 1.68774 1.97562 1.68774C1.36093 1.69231 0.759893 1.74718 0.172519 1.85233Z" fill="#E07037"/>
</g>
</svg>
