<svg width="24" height="30" viewBox="0 0 24 30" fill="none" xmlns="http://www.w3.org/2000/svg">
<path d="M15.3478 18.1238L19.2906 19.1036C21.4705 19.6453 23 21.5916 23 23.824V23.8259V26.149C21.2464 27.2577 16.9739 29 12 29C7.02609 29 2.5942 26.4657 1 25.1986V23.824C1 21.5916 2.52948 19.6453 4.70939 19.1036L8.65217 18.1238L9.12087 15.2932C8.07157 14.3153 7.37522 12.8803 7.26139 11.4538H7.10548C6.62339 11.4538 6.21591 11.0974 6.15661 10.6213L5.91748 8.72061C5.84574 8.1542 6.29148 7.65242 6.86635 7.65242H6.96487C6.96487 7.65242 6.73913 5.87337 6.73913 5.27656C6.73913 3.58399 7.18965 1.98931 11.0435 1.95035C12.3214 1.04277 13.7141 1 14.5166 1C16.0337 1 17.1174 1.48183 17.7391 2.42552C18.358 3.36541 18.358 4.14755 17.7391 4.80138L17.2609 5.27656L17.1451 7.65527C17.7143 7.66192 18.1543 8.158 18.0835 8.72061L17.8443 10.6213C17.7841 11.0974 17.3776 11.4538 16.8945 11.4538H16.8486C16.731 12.9202 15.9973 14.3923 14.8992 15.3702L15.3478 18.1238Z" fill="white"/>
<path d="M19.2906 19.1036L19.17 19.5889L19.17 19.5889L19.2906 19.1036ZM15.3478 18.1238L14.8543 18.2042C14.8865 18.4016 15.0332 18.5608 15.2272 18.6091L15.3478 18.1238ZM14.8992 15.3702L14.5667 14.9968C14.4389 15.1106 14.3782 15.2817 14.4057 15.4506L14.8992 15.3702ZM16.8486 11.4538V10.9538C16.588 10.9538 16.3711 11.154 16.3502 11.4138L16.8486 11.4538ZM17.8443 10.6213L18.3404 10.6841L18.3404 10.6837L17.8443 10.6213ZM18.0835 8.72061L18.5796 8.78302V8.78302L18.0835 8.72061ZM17.1451 7.65527L16.6457 7.63097C16.6391 7.76662 16.688 7.89912 16.7811 7.998C16.8742 8.09689 17.0035 8.15365 17.1393 8.15524L17.1451 7.65527ZM17.2609 5.27656L16.9085 4.92186C16.82 5.00979 16.7675 5.12764 16.7615 5.25226L17.2609 5.27656ZM17.7391 4.80138L18.0915 5.15608C18.0952 5.15247 18.0987 5.14881 18.1023 5.14509L17.7391 4.80138ZM17.7391 2.42552L18.1567 2.15055L18.1567 2.15044L17.7391 2.42552ZM11.0435 1.95035L11.0485 2.45032C11.1506 2.44929 11.2498 2.41707 11.333 2.358L11.0435 1.95035ZM6.96487 7.65242V8.15242C7.10845 8.15242 7.2451 8.0907 7.34002 7.98297C7.43494 7.87525 7.47897 7.73192 7.46089 7.58948L6.96487 7.65242ZM5.91748 8.72061L6.41357 8.65819L6.41352 8.65778L5.91748 8.72061ZM6.15661 10.6213L6.65277 10.5595L6.6527 10.5589L6.15661 10.6213ZM7.26139 11.4538L7.75981 11.414C7.73907 11.1541 7.52211 10.9538 7.26139 10.9538V11.4538ZM9.12087 15.2932L9.61415 15.3749C9.64152 15.2096 9.5843 15.0416 9.46176 14.9274L9.12087 15.2932ZM8.65217 18.1238L8.77276 18.6091C8.96638 18.5609 9.11287 18.4023 9.14546 18.2055L8.65217 18.1238ZM4.70939 19.1036L4.82997 19.5889L4.82998 19.5889L4.70939 19.1036ZM1 25.1986H0.5V25.4399L0.688887 25.59L1 25.1986ZM23 26.149L23.2672 26.5716L23.5 26.4244V26.149H23ZM19.4112 18.6184L15.4684 17.6386L15.2272 18.6091L19.17 19.5889L19.4112 18.6184ZM15.8413 18.0434L15.3927 15.2898L14.4057 15.4506L14.8543 18.2042L15.8413 18.0434ZM15.2317 15.7436C16.4258 14.6802 17.219 13.0888 17.347 11.4938L16.3502 11.4138C16.2429 12.7516 15.5688 14.1043 14.5667 14.9968L15.2317 15.7436ZM16.8486 11.9538H16.8945V10.9538H16.8486V11.9538ZM16.8945 11.9538C17.627 11.9538 18.2482 11.4125 18.3404 10.6841L17.3483 10.5585C17.32 10.7823 17.1281 10.9538 16.8945 10.9538V11.9538ZM18.3404 10.6837L18.5796 8.78302L17.5874 8.65819L17.3483 10.5589L18.3404 10.6837ZM18.5796 8.78302C18.6884 7.91802 18.0124 7.16537 17.151 7.15531L17.1393 8.15524C17.4161 8.15847 17.6201 8.39799 17.5874 8.6582L18.5796 8.78302ZM17.6445 7.67957L17.7603 5.30086L16.7615 5.25226L16.6457 7.63097L17.6445 7.67957ZM17.6133 5.63125L18.0915 5.15608L17.3867 4.44669L16.9085 4.92186L17.6133 5.63125ZM18.1023 5.14509C18.4858 4.73988 18.7033 4.26206 18.7033 3.72072C18.7033 3.19452 18.4978 2.66848 18.1567 2.15055L17.3215 2.70049C17.5994 3.12244 17.7033 3.45742 17.7033 3.72072C17.7033 3.96888 17.6113 4.20905 17.376 4.45767L18.1023 5.14509ZM18.1567 2.15044C17.4126 1.02108 16.1392 0.5 14.5166 0.5V1.5C15.9281 1.5 16.8222 1.94257 17.3216 2.7006L18.1567 2.15044ZM14.5166 0.5C13.698 0.5 12.1673 0.538915 10.754 1.54269L11.333 2.358C12.4755 1.54662 13.7302 1.5 14.5166 1.5V0.5ZM11.0384 1.45037C9.06312 1.47034 7.82 1.88686 7.08655 2.64591C6.34911 3.40911 6.23913 4.40514 6.23913 5.27656H7.23913C7.23913 4.45541 7.35441 3.80781 7.80569 3.34079C8.26095 2.86962 9.17001 2.46931 11.0485 2.45032L11.0384 1.45037ZM6.23913 5.27656C6.23913 5.60752 6.29931 6.23052 6.35493 6.74231C6.38341 7.0044 6.41185 7.2474 6.43317 7.42477C6.44383 7.51351 6.45273 7.58596 6.45896 7.6363C6.46208 7.66147 6.46454 7.68113 6.46623 7.69455C6.46707 7.70126 6.46772 7.70641 6.46816 7.7099C6.46838 7.71165 6.46855 7.71299 6.46866 7.7139C6.46872 7.71436 6.46876 7.71471 6.4688 7.71495C6.46881 7.71507 6.46882 7.71517 6.46883 7.71524C6.46884 7.71527 6.46884 7.7153 6.46884 7.71532C6.46884 7.71534 6.46885 7.71536 6.96487 7.65242C7.46089 7.58948 7.46089 7.58948 7.46089 7.58948C7.46089 7.58947 7.46089 7.58946 7.46089 7.58944C7.46088 7.5894 7.46087 7.58933 7.46086 7.58924C7.46084 7.58905 7.4608 7.58875 7.46075 7.58835C7.46065 7.58755 7.46049 7.58633 7.46029 7.58469C7.45987 7.58142 7.45926 7.57651 7.45844 7.57004C7.45682 7.55711 7.45443 7.53796 7.45137 7.51332C7.44527 7.46404 7.43653 7.39283 7.42603 7.30546C7.40502 7.13062 7.37703 6.89155 7.34907 6.63428C7.29182 6.10734 7.23913 5.54241 7.23913 5.27656H6.23913ZM6.96487 7.15242H6.86635V8.15242H6.96487V7.15242ZM6.86635 7.15242C5.99435 7.15242 5.31138 7.91443 5.42144 8.78343L6.41352 8.65778C6.3801 8.39397 6.58861 8.15242 6.86635 8.15242V7.15242ZM5.42139 8.78302L5.66052 10.6837L6.6527 10.5589L6.41357 8.65819L5.42139 8.78302ZM5.66044 10.6831C5.75134 11.4128 6.37448 11.9538 7.10548 11.9538V10.9538C6.8723 10.9538 6.68049 10.782 6.65277 10.5595L5.66044 10.6831ZM7.10548 11.9538H7.26139V10.9538H7.10548V11.9538ZM6.76298 11.4936C6.8868 13.0454 7.63987 14.5964 8.77998 15.659L9.46176 14.9274C8.50326 14.0341 7.86363 12.7152 7.75981 11.414L6.76298 11.4936ZM8.62759 15.2115L8.15889 18.0421L9.14546 18.2055L9.61415 15.3749L8.62759 15.2115ZM8.53159 17.6386L4.58881 18.6184L4.82998 19.5889L8.77276 18.6091L8.53159 17.6386ZM4.58881 18.6184C2.18797 19.215 0.5 21.3599 0.5 23.824H1.5C1.5 21.8234 2.87098 20.0757 4.82997 19.5889L4.58881 18.6184ZM23.5 23.8259V23.824H22.5V23.8259H23.5ZM23.5 23.824C23.5 21.3599 21.812 19.215 19.4112 18.6184L19.17 19.5889C21.129 20.0757 22.5 21.8234 22.5 23.824H23.5ZM0.688887 25.59C2.33954 26.902 6.87806 29.5 12 29.5V28.5C7.17411 28.5 2.84886 26.0295 1.31111 24.8072L0.688887 25.59ZM12 29.5C17.0755 29.5 21.4397 27.727 23.2672 26.5716L22.7328 25.7263C21.053 26.7884 16.8723 28.5 12 28.5V29.5ZM0.5 23.824V25.1986H1.5V23.824H0.5ZM23.5 26.149V23.8259H22.5V26.149H23.5Z" fill="white"/>
</svg>
