<svg width="24" height="30" viewBox="0 0 24 30" fill="none" xmlns="http://www.w3.org/2000/svg">
<path d="M15.3478 18.1053L19.2906 19.082C21.4705 19.622 23 21.5622 23 23.7876V23.7895V25.2105C21.8841 26.3158 16.7826 29 12 29C6.26087 29 2.43478 26.6316 1 25.2105V23.7895V23.7876C1 21.5622 2.52948 19.622 4.70939 19.082L8.65217 18.1053L9.06061 15.4891C6.23217 15.1006 3.86957 13.7895 3.86957 13.7895C3.86957 13.7895 6.73913 12.8421 6.73913 7.63158C6.73913 2.42105 10.6848 1 12 1C13.3152 1 13.694 1.25674 14.3913 1.94737H14.8696C15.6673 1.94737 17.2609 2.42105 17.2609 7.63158C17.2609 12.8421 20.1304 13.7895 20.1304 13.7895C20.1304 13.7895 17.7497 15.0978 14.9394 15.4872L15.3478 18.1053Z" fill="white" stroke="white" stroke-linecap="round" stroke-linejoin="round"/>
</svg>
